PathFileType	4	(X/Y/Z)	Patient4_TMGait_0pt4_01_right_33.trc.trc
DataRate	CameraRate	NumFrames	NumMarkers	Units	OrigDataRate	OrigDataStartFrame	OrigNumFrames
75.268817204301	75.268817204301	6	33	mm	75.268817204301	36	       141
Frame#	Time	Sacral			L.Shoulder			Chest			R.Shoulder			Neck			R.ASIS			L.ASIS			R.Thigh.Superior			R.Thigh.Lateral			R.Thigh.Inferior			R.Patella			L.Thigh.Superior			L.Thigh.Lateral			L.Thigh.Inferior			L.Patella			L.Shank.Superior			L.Shank.Lateral			L.Shank.Inferior			R.Shank.Superior			R.Shank.Lateral			R.Shank.Inferior			R.Heel			R.Midfoot.Superior			R.Midfoot.Lateral			R.Toe			L.Heel			L.Midfoot.Lateral			L.Midfoot.Superior			L.Toe			L.Elbow			L.Wrist			R.Elbow			R.Wrist			
		X1	Y1	Z1	X2	Y2	Z2	X3	Y3	Z3	X4	Y4	Z4	X5	Y5	Z5	X6	Y6	Z6	X7	Y7	Z7	X8	Y8	Z8	X9	Y9	Z9	X10	Y10	Z10	X11	Y11	Z11	X12	Y12	Z12	X13	Y13	Z13	X14	Y14	Z14	X15	Y15	Z15	X16	Y16	Z16	X17	Y17	Z17	X18	Y18	Z18	X19	Y19	Z19	X20	Y20	Z20	X21	Y21	Z21	X22	Y22	Z22	X23	Y23	Z23	X24	Y24	Z24	X25	Y25	Z25	X26	Y26	Z26	X27	Y27	Z27	X28	Y28	Z28	X29	Y29	Z29	X30	Y30	Z30	X31	Y31	Z31	X32	Y32	Z32	X33	Y33	Z33	

36	43.315000000000	852.793493423856	1001.976814655143	520.060455298852	1037.407148120640	1431.859056137116	344.886754997749	1130.109043432786	1365.903251751389	512.855507541226	1034.891357171917	1437.117978435107	681.385138457319	1006.526757989297	1494.243361705551	501.837881544824	1079.134457241974	942.662462298993	646.820919267568	1073.825826059860	961.286954027539	371.706655908428	1132.863851400143	745.610834613668	619.131320366410	1055.444414644273	633.079675961534	676.496446297836	1139.174292881877	585.147504079892	599.148575853456	1144.904081945233	495.998183727350	605.955589740103	1114.267900832543	741.529405434221	393.665637290210	1028.352231019069	628.106342030049	322.372232648920	1114.260617769717	543.433256376457	378.693903706537	1107.652571780352	460.468956708769	375.871097354135	1044.193450883980	399.808626412590	371.025701788415	909.238036093299	345.015686121937	318.449229252007	903.285895363372	218.334144811070	379.870671813002	1115.245244778273	406.531525376081	611.298794785210	1042.600985979137	303.104670417927	671.262482121522	1084.997088106363	207.799425740642	608.842578253454	951.647488802350	44.283266220577	577.019506976878	1122.430026088866	97.400895276914	616.185770208488	1033.868065001048	37.468476199281	653.504932970100	1242.469897048994	42.785746140073	645.852580749028	717.684930026023	131.762725221893	412.562393097553	785.326205036339	93.171088318753	337.340339892062	885.603132478236	120.335225471389	362.684883486281	981.530487052952	33.853510606134	344.222316429529	1047.832895210714	1083.429288789668	218.073078456696	1202.175862278376	871.604623460837	206.730678671142	953.698694226847	1097.315908846439	793.064010705332	994.963423023190	839.788820454257	806.351804636842	
37	43.328285714286	852.902827645062	1002.726649693950	523.593421272909	1036.209198549396	1432.536281176358	347.340942241885	1130.410629807507	1366.514855716418	514.493438761460	1036.704149674673	1437.623850275050	683.842170413699	1006.705298428258	1494.856210953124	504.521687807513	1079.823688651102	943.239124224136	648.916703162733	1072.766708427077	961.769991759624	374.077172727240	1131.443758382392	745.110453312412	622.160350153639	1052.311401792550	633.160754939343	678.672375894933	1135.765450881622	584.673392413284	601.503348554396	1140.218705569364	495.738172753334	607.817830882106	1118.607798633683	744.657368690073	395.983400780380	1037.253654005169	629.426145539804	323.346558836040	1125.429377730955	546.584589599328	379.665085445414	1120.062839742252	462.520375203144	376.117268461196	1055.016691841698	401.697141206045	371.322593213785	918.308267199005	351.152274511964	318.789955121644	908.743978217398	224.537608060856	379.785875229263	1110.728967785066	406.439474615530	612.828959587529	1037.909903963607	302.957744638237	672.375386411958	1080.136260202562	207.758908225385	609.589912253084	946.397401008442	44.356835386081	577.220026221337	1117.246102577716	97.364721550231	616.524756480297	1028.627173986808	37.446044347729	653.658825328970	1237.261077514751	42.471728070959	646.139663613038	719.961160879684	145.377187203852	412.236786520971	786.067820528395	103.789103383759	336.957668443457	887.831910828753	126.222680208037	362.279631897141	979.291682666582	33.816347924599	343.761487365136	1043.176204160975	1083.230033454172	222.325080664438	1190.816199429905	866.674966339710	209.703791517243	962.677459692509	1096.333769941878	797.666858619729	1013.524193839130	840.362151502831	809.547813866023	
38	43.341571428571	852.822704278136	1003.458934434051	526.973575407776	1034.874219001011	1433.110329889102	349.579367312800	1130.604319667193	1367.045524665866	515.891456694061	1038.473395170147	1438.086006032646	686.088809390071	1006.821050123043	1495.414865929560	506.983184695513	1080.310192730863	943.738085972637	650.854418314566	1071.513959657188	962.143510540596	376.304832239049	1129.806840009173	744.605648183972	624.747948627401	1049.198747151048	633.235943978472	680.652270271079	1132.200523478262	584.195406321131	603.511718106173	1135.407353895851	495.489934322220	609.421677281214	1122.565422515585	747.963192908192	398.184941281913	1045.651346183178	631.130933049491	324.238912061085	1135.944726563544	550.214451623003	380.590452006301	1131.958625367333	465.173450713026	376.443911308660	1065.654034924176	404.028791604682	371.579909252587	927.461325429517	357.180461778921	319.145192975848	914.813129649376	230.629101210096	379.726395210868	1106.104481528639	406.348918370124	614.176176516589	1033.109812397491	302.827999640305	673.368995440075	1075.191432503016	207.722153119842	610.247643951216	941.064108553456	44.424995966921	577.399455211386	1111.982136374602	97.312105105325	616.809367124888	1023.305636197153	37.423310493975	653.794457996038	1231.964847899763	42.174725223568	646.394674135696	723.485062978819	157.808545202821	412.103767251036	788.145150036435	113.945233031611	336.575536067501	891.118268140118	132.194659399756	361.857686712514	978.674849568622	34.248457857239	342.828899695951	1038.156561615594	1082.965032141033	226.349803702069	1179.002440792351	861.958915662612	212.692644797435	971.909710478533	1095.485747124580	802.173343312501	1032.647769820204	841.511073030788	812.632678591173	
39	43.354857142857	852.560928060952	1004.183563767977	530.183748444214	1033.446350839194	1433.604760602871	351.607722451712	1130.700424891198	1367.509515969788	517.068585432972	1040.183120955980	1438.528623076012	688.124710061065	1006.886910467815	1495.938700281726	509.213783686171	1080.595121009007	944.160371489288	652.641997256738	1070.127052770492	962.470185121529	378.372642595504	1127.977647728274	744.107989121301	626.848904329129	1046.139474623529	633.319341379721	682.416897429989	1128.503705895481	583.716561123280	605.151433192001	1130.509064085518	495.262776940749	610.740646532211	1126.060471512079	751.418639414722	400.243964050072	1053.354064510160	633.201582543235	325.064137732989	1145.642526765248	554.277395898488	381.411335184029	1143.179837523440	468.396613173821	376.762090351801	1075.980187585881	406.767095923346	371.737331335702	936.575081714178	362.878328883364	319.496110000149	921.576731733478	236.315844304724	379.628769675435	1101.400745500575	406.264901356941	615.317919784266	1028.240036225108	302.725286226573	674.234190249074	1070.194164008050	207.696414915742	610.806123152031	935.676054319732	44.489804831302	577.560878397718	1106.667683360823	97.252716079568	617.044116303499	1017.933118639380	37.405549380829	653.916686073691	1226.611213017103	41.908565215348	646.618544404988	728.401785000696	168.381673142784	412.141550611460	791.782213928083	123.054289996790	336.161145711735	895.682872551159	137.903043664598	361.339323881652	980.122607576652	35.192087559137	341.334123078758	1032.777137719502	1082.673248217824	230.146835398365	1166.778266499005	857.513371330508	215.697176374009	981.378013935629	1094.794437805890	806.502994311445	1052.234444939098	843.302747141028	815.549535450198	
40	43.368142857143	852.128710682606	1004.914751029309	533.221592661008	1031.964287757195	1434.047803821257	353.439309361247	1130.709744019402	1367.926487921198	518.049017565420	1041.822460676038	1438.980742773216	689.954297552386	1006.913362118193	1496.448893095764	511.211291800260	1080.689372334999	944.511926702078	654.285218475336	1068.644049273745	962.817795815705	380.269179533111	1125.978387345289	743.620990602829	628.464520423218	1043.128125607349	633.420580017563	683.953786792464	1124.683249018439	583.237074092473	606.427884205215	1125.541291742303	495.064181044582	611.762555700555	1129.036660485887	754.993289622176	402.138479009300	1060.221073257739	635.596522374020	325.833679508889	1154.411415649733	558.707297928939	382.072492290541	1153.606569787716	472.140849192333	376.988592784541	1085.912892899390	409.855178090247	371.741899320825	945.580710908439	368.013897625167	319.808962011357	929.150085361869	241.308932089444	379.423641560801	1096.626752430842	406.192116431058	616.242106852109	1023.320680365531	302.656039976946	674.965253257417	1065.163009951932	207.687757653836	611.260997581608	930.257976512879	44.550663435705	577.704156199643	1101.326832223141	97.195851176750	617.234923898227	1012.534319794063	37.395370507483	654.028501197534	1221.225264819949	41.685311532715	646.812665059764	734.862463006251	176.506070654126	412.290931592843	797.202560226720	130.568363379558	335.665066557424	901.762036509888	142.987826808968	360.645161329426	984.051069474779	36.617064789985	339.232400993968	1027.049317739376	1082.400641744345	233.725793599081	1154.189790905436	853.389359242196	218.717944860496	991.052603516689	1094.289718611663	810.583980675114	1072.198095436733	845.810822038196	818.233994313628	
41	43.381428571429	851.539772763890	1005.666344885864	536.096236736827	1030.457024244066	1434.464835928960	355.092742060270	1130.643459471862	1368.314660228208	518.857816103006	1043.389204079446	1439.468103461969	691.586071759613	1006.908813539519	1496.962222756513	512.980307543764	1080.613030558256	944.800274098416	655.784738386040	1067.079866978458	963.245846182253	381.985934482087	1123.828301151844	743.141555015588	629.628562648290	1040.136061075935	633.544233794471	685.258587253521	1120.737127175641	582.754690030194	607.366479592297	1120.506488781890	494.897787025312	612.491634697541	1131.461736287454	758.651992320318	403.847732749318	1066.163648616069	638.253512236550	326.554992886298	1162.185524715607	563.417405984277	382.532316539741	1163.153712844759	476.338776338518	377.062272204183	1095.403634386626	413.218234347675	371.559791192786	954.458569984314	372.362362794502	320.040334217523	937.658575911711	245.350834272469	379.046692123817	1091.777462388229	406.132919233078	616.948056820258	1018.357129810472	302.621621525129	675.561234494740	1060.104713382389	207.698696177181	611.613437728155	924.828474835646	44.604637665784	577.827364307829	1095.976057685236	97.148442461833	617.387757183064	1007.126787633951	37.392706647387	654.131267811639	1215.825143193622	41.513194099990	646.978198070372	743.012144600135	181.728955975445	412.459215469339	804.610952992245	136.030248867243	335.027007470938	909.579494169468	147.117024074612	359.708406933629	990.804237411998	38.417292118645	336.536518655960	1020.993388190264	1082.190420405645	237.102475365278	1141.288297798147	849.626056531166	221.755523460202	1000.890216901214	1094.002182981329	814.359805763745	1092.460741830562	849.109894100325	820.617268761419	
